<svg width="142" height="121" viewBox="0 0 142 121" fill="none" xmlns="http://www.w3.org/2000/svg">
<path fill-rule="evenodd" clip-rule="evenodd" d="M0 62.3165C0 104.206 25.9834 113.582 50.6964 116.362C50.6964 116.362 66.8595 117.227 70.9444 117.227C75.0292 117.227 91.1923 116.27 91.1923 116.27C115.97 113.564 142 104.315 142 62.3165C142 50.3794 137.688 40.6201 130.548 32.9658C131.698 30.2139 135.509 19.0877 129.453 4.02508C129.453 4.02508 120.125 1.09091 98.8798 15.2332C89.9868 12.8094 80.4633 11.5974 71.0046 11.5519C61.546 11.5974 52.0317 12.8094 43.1574 15.2332C21.8939 1.09091 12.5466 4.02508 12.5466 4.02508C6.5005 19.0786 10.3118 30.2047 11.4616 32.9658C4.34917 40.6201 0 50.3703 0 62.3165ZM120.15 65.9547C105.381 83.7041 96.9511 78.0548 88.9381 72.6851C85.2156 70.1906 81.5831 67.7564 77.4471 67.7564C72.3411 67.7564 71.0032 71.3002 71.0032 72.8577C71.0032 71.3002 69.6589 67.7564 64.5593 67.7564C60.4128 67.7564 56.7755 70.1935 53.0501 72.6896C45.0381 78.058 36.6188 83.6992 21.8502 65.9547C21.4336 94.4623 52.959 101.23 71.0032 83.3751C89.041 101.203 120.566 94.4623 120.15 65.9547Z" fill="url(#paint0_linear_87_147)"/>
<defs>
<linearGradient id="paint0_linear_87_147" x1="49.9917" y1="3.41453" x2="119.397" y2="148.346" gradientUnits="userSpaceOnUse">
<stop stop-color="#8028C6"/>
<stop offset="1" stop-color="#363170"/>
</linearGradient>
</defs>
</svg>
